# xmcd
#
# Track frame offsets: 
#        150
#        16907
#        38137
#        72957
#
# Disc length: 1620 seconds
#
# Revision: 3
# Processed by: cddbd v1.5.2PL0 Copyright (c) Steve Scherf et al.
# Submitted via: ExactAudioCopy v0.95b4
#
DISCID=2a065204
DTITLE=Allure - All Cried Out (Single)
DYEAR=1997
DGENRE=R&B
TTITLE0=All Cried Out (Edit)
TTITLE1=All Cried Out (Radio Mix)
TTITLE2=All Cried Out (Dub Mix)
TTITLE3=All Cried Out (Main Club Pass)
EXTD=
EXTT0=
EXTT1=
EXTT2=
EXTT3=
PLAYORDER=
